<?xml version="1.0" encoding="iso-8859-1"?>
<!-- Uploaded to: SVG Repo, www.svgrepo.com, Generator: SVG Repo Mixer Tools -->
<svg height="800px" width="800px" version="1.1" id="Layer_1" xmlns="http://www.w3.org/2000/svg" xmlns:xlink="http://www.w3.org/1999/xlink" 
	 viewBox="0 0 512 512" xml:space="preserve">
<g transform="translate(1 1)">
	<polygon style="fill:#FD9808;" points="229.4,417.133 374.467,417.133 374.467,127 229.4,127 	"/>
	<polygon style="fill:#FFFFFF;" points="101.4,417.133 246.467,417.133 246.467,127 101.4,127 	"/>
	<polygon style="fill:#FFDD09;" points="127,417.133 348.867,417.133 348.867,127 127,127 	"/>
	<path d="M118.467,101.4c-5.12,0-8.533-3.413-8.533-8.533V7.533c0-5.12,3.413-8.533,8.533-8.533S127,2.413,127,7.533v85.333
		C127,97.987,123.587,101.4,118.467,101.4z"/>
	<path d="M502.467,400.067h-85.333c-5.12,0-8.533-3.413-8.533-8.533s3.413-8.533,8.533-8.533h85.333c5.12,0,8.533,3.413,8.533,8.533
		S507.587,400.067,502.467,400.067z"/>
	<path d="M92.867,476.867h-8.533c-5.12,0-8.533-3.413-8.533-8.533c0-5.12,3.413-8.533,8.533-8.533h8.533
		c5.12,0,8.533,3.413,8.533,8.533C101.4,473.453,97.987,476.867,92.867,476.867z"/>
	<path d="M135.533,476.867H127c-5.12,0-8.533-3.413-8.533-8.533c0-5.12,3.413-8.533,8.533-8.533h8.533
		c5.12,0,8.533,3.413,8.533,8.533C144.067,473.453,140.653,476.867,135.533,476.867z"/>
	<path d="M178.2,476.867h-8.533c-5.12,0-8.533-3.413-8.533-8.533c0-5.12,3.413-8.533,8.533-8.533h8.533
		c5.12,0,8.533,3.413,8.533,8.533C186.733,473.453,183.32,476.867,178.2,476.867z"/>
	<path d="M220.867,476.867h-8.533c-5.12,0-8.533-3.413-8.533-8.533c0-5.12,3.413-8.533,8.533-8.533h8.533
		c5.12,0,8.533,3.413,8.533,8.533C229.4,473.453,225.987,476.867,220.867,476.867z"/>
	<path d="M263.533,476.867H255c-5.12,0-8.533-3.413-8.533-8.533c0-5.12,3.413-8.533,8.533-8.533h8.533
		c5.12,0,8.533,3.413,8.533,8.533C272.067,473.453,268.653,476.867,263.533,476.867z"/>
	<path d="M306.2,476.867h-8.533c-5.12,0-8.533-3.413-8.533-8.533c0-5.12,3.413-8.533,8.533-8.533h8.533
		c5.12,0,8.533,3.413,8.533,8.533C314.733,473.453,311.32,476.867,306.2,476.867z"/>
	<path d="M348.867,476.867h-8.533c-5.12,0-8.533-3.413-8.533-8.533c0-5.12,3.413-8.533,8.533-8.533h8.533
		c5.12,0,8.533,3.413,8.533,8.533C357.4,473.453,353.987,476.867,348.867,476.867z"/>
	<path d="M391.533,476.867H383c-5.12,0-8.533-3.413-8.533-8.533c0-5.12,3.413-8.533,8.533-8.533h8.533
		c5.12,0,8.533,3.413,8.533,8.533C400.067,473.453,396.653,476.867,391.533,476.867z"/>
	<path d="M434.2,476.867h-8.533c-5.12,0-8.533-3.413-8.533-8.533c0-5.12,3.413-8.533,8.533-8.533h8.533
		c5.12,0,8.533,3.413,8.533,8.533C442.733,473.453,439.32,476.867,434.2,476.867z"/>
	<path d="M468.333,511c-5.12,0-8.533-3.413-8.533-8.533v-34.133c0-5.12,3.413-8.533,8.533-8.533h34.133
		c5.12,0,8.533,3.413,8.533,8.533c0,5.12-3.413,8.533-8.533,8.533h-25.6v25.6C476.867,507.587,473.453,511,468.333,511z"/>
	<path d="M434.2,50.2h-8.533c-5.12,0-8.533-3.413-8.533-8.533s3.413-8.533,8.533-8.533h8.533c5.12,0,8.533,3.413,8.533,8.533
		S439.32,50.2,434.2,50.2z"/>
	<path d="M391.533,50.2H383c-5.12,0-8.533-3.413-8.533-8.533s3.413-8.533,8.533-8.533h8.533c5.12,0,8.533,3.413,8.533,8.533
		S396.653,50.2,391.533,50.2z"/>
	<path d="M348.867,50.2h-8.533c-5.12,0-8.533-3.413-8.533-8.533s3.413-8.533,8.533-8.533h8.533c5.12,0,8.533,3.413,8.533,8.533
		S353.987,50.2,348.867,50.2z"/>
	<path d="M306.2,50.2h-8.533c-5.12,0-8.533-3.413-8.533-8.533s3.413-8.533,8.533-8.533h8.533c5.12,0,8.533,3.413,8.533,8.533
		S311.32,50.2,306.2,50.2z"/>
	<path d="M263.533,50.2H255c-5.12,0-8.533-3.413-8.533-8.533s3.413-8.533,8.533-8.533h8.533c5.12,0,8.533,3.413,8.533,8.533
		S268.653,50.2,263.533,50.2z"/>
	<path d="M220.867,50.2h-8.533c-5.12,0-8.533-3.413-8.533-8.533s3.413-8.533,8.533-8.533h8.533c5.12,0,8.533,3.413,8.533,8.533
		S225.987,50.2,220.867,50.2z"/>
	<path d="M178.2,50.2h-8.533c-5.12,0-8.533-3.413-8.533-8.533s3.413-8.533,8.533-8.533h8.533c5.12,0,8.533,3.413,8.533,8.533
		S183.32,50.2,178.2,50.2z"/>
	<path d="M135.533,50.2h-17.067c-5.12,0-8.533-3.413-8.533-8.533s3.413-8.533,8.533-8.533h17.067c5.12,0,8.533,3.413,8.533,8.533
		S140.653,50.2,135.533,50.2z"/>
	<path d="M84.333,50.2H75.8c-5.12,0-8.533-3.413-8.533-8.533s3.413-8.533,8.533-8.533h8.533c5.12,0,8.533,3.413,8.533,8.533
		S89.453,50.2,84.333,50.2z"/>
	<path d="M502.467,50.2h-34.133c-5.12,0-8.533-3.413-8.533-8.533V7.533c0-5.12,3.413-8.533,8.533-8.533
		c5.12,0,8.533,3.413,8.533,8.533v25.6h25.6c5.12,0,8.533,3.413,8.533,8.533S507.587,50.2,502.467,50.2z"/>
	<path d="M41.667,50.2H7.533C2.413,50.2-1,46.787-1,41.667s3.413-8.533,8.533-8.533h25.6v-25.6c0-5.12,3.413-8.533,8.533-8.533
		S50.2,2.413,50.2,7.533v34.133C50.2,46.787,46.787,50.2,41.667,50.2z"/>
	<path d="M41.667,101.4c-5.12,0-8.533-3.413-8.533-8.533v-8.533c0-5.12,3.413-8.533,8.533-8.533s8.533,3.413,8.533,8.533v8.533
		C50.2,97.987,46.787,101.4,41.667,101.4z"/>
	<path d="M41.667,144.067c-5.12,0-8.533-3.413-8.533-8.533V127c0-5.12,3.413-8.533,8.533-8.533S50.2,121.88,50.2,127v8.533
		C50.2,140.653,46.787,144.067,41.667,144.067z"/>
	<path d="M41.667,186.733c-5.12,0-8.533-3.413-8.533-8.533v-8.533c0-5.12,3.413-8.533,8.533-8.533s8.533,3.413,8.533,8.533v8.533
		C50.2,183.32,46.787,186.733,41.667,186.733z"/>
	<path d="M41.667,229.4c-5.12,0-8.533-3.413-8.533-8.533v-8.533c0-5.12,3.413-8.533,8.533-8.533s8.533,3.413,8.533,8.533v8.533
		C50.2,225.987,46.787,229.4,41.667,229.4z"/>
	<path d="M41.667,272.067c-5.12,0-8.533-3.413-8.533-8.533V255c0-5.12,3.413-8.533,8.533-8.533S50.2,249.88,50.2,255v8.533
		C50.2,268.653,46.787,272.067,41.667,272.067z"/>
	<path d="M41.667,314.733c-5.12,0-8.533-3.413-8.533-8.533v-8.533c0-5.12,3.413-8.533,8.533-8.533s8.533,3.413,8.533,8.533v8.533
		C50.2,311.32,46.787,314.733,41.667,314.733z"/>
	<path d="M41.667,357.4c-5.12,0-8.533-3.413-8.533-8.533v-8.533c0-5.12,3.413-8.533,8.533-8.533s8.533,3.413,8.533,8.533v8.533
		C50.2,353.987,46.787,357.4,41.667,357.4z"/>
	<path d="M41.667,400.067c-5.12,0-8.533-3.413-8.533-8.533V383c0-5.12,3.413-8.533,8.533-8.533S50.2,377.88,50.2,383v8.533
		C50.2,396.653,46.787,400.067,41.667,400.067z"/>
	<path d="M41.667,442.733c-5.12,0-8.533-3.413-8.533-8.533v-8.533c0-5.12,3.413-8.533,8.533-8.533s8.533,3.413,8.533,8.533v8.533
		C50.2,439.32,46.787,442.733,41.667,442.733z"/>
	<path d="M468.333,92.867c-5.12,0-8.533-3.413-8.533-8.533V75.8c0-5.12,3.413-8.533,8.533-8.533c5.12,0,8.533,3.413,8.533,8.533
		v8.533C476.867,89.453,473.453,92.867,468.333,92.867z"/>
	<path d="M468.333,135.533c-5.12,0-8.533-3.413-8.533-8.533v-8.533c0-5.12,3.413-8.533,8.533-8.533c5.12,0,8.533,3.413,8.533,8.533
		V127C476.867,132.12,473.453,135.533,468.333,135.533z"/>
	<path d="M468.333,178.2c-5.12,0-8.533-3.413-8.533-8.533v-8.533c0-5.12,3.413-8.533,8.533-8.533c5.12,0,8.533,3.413,8.533,8.533
		v8.533C476.867,174.787,473.453,178.2,468.333,178.2z"/>
	<path d="M468.333,220.867c-5.12,0-8.533-3.413-8.533-8.533V203.8c0-5.12,3.413-8.533,8.533-8.533c5.12,0,8.533,3.413,8.533,8.533
		v8.533C476.867,217.453,473.453,220.867,468.333,220.867z"/>
	<path d="M468.333,263.533c-5.12,0-8.533-3.413-8.533-8.533v-8.533c0-5.12,3.413-8.533,8.533-8.533c5.12,0,8.533,3.413,8.533,8.533
		V255C476.867,260.12,473.453,263.533,468.333,263.533z"/>
	<path d="M468.333,306.2c-5.12,0-8.533-3.413-8.533-8.533v-8.533c0-5.12,3.413-8.533,8.533-8.533c5.12,0,8.533,3.413,8.533,8.533
		v8.533C476.867,302.787,473.453,306.2,468.333,306.2z"/>
	<path d="M468.333,348.867c-5.12,0-8.533-3.413-8.533-8.533V331.8c0-5.12,3.413-8.533,8.533-8.533c5.12,0,8.533,3.413,8.533,8.533
		v8.533C476.867,345.453,473.453,348.867,468.333,348.867z"/>
	<path d="M468.333,400.067c-5.12,0-8.533-3.413-8.533-8.533v-17.067c0-5.12,3.413-8.533,8.533-8.533c5.12,0,8.533,3.413,8.533,8.533
		v17.067C476.867,396.653,473.453,400.067,468.333,400.067z"/>
	<path d="M468.333,442.733c-5.12,0-8.533-3.413-8.533-8.533v-8.533c0-5.12,3.413-8.533,8.533-8.533c5.12,0,8.533,3.413,8.533,8.533
		v8.533C476.867,439.32,473.453,442.733,468.333,442.733z"/>
	<path d="M41.667,511c-5.12,0-8.533-3.413-8.533-8.533v-25.6h-25.6c-5.12,0-8.533-3.413-8.533-8.533c0-5.12,3.413-8.533,8.533-8.533
		h34.133c5.12,0,8.533,3.413,8.533,8.533v34.133C50.2,507.587,46.787,511,41.667,511z"/>
	<path d="M374.467,425.667H101.4c-5.12,0-8.533-3.413-8.533-8.533V127c0-5.12,3.413-8.533,8.533-8.533h273.067
		c5.12,0,8.533,3.413,8.533,8.533v290.133C383,422.253,379.587,425.667,374.467,425.667z M109.933,408.6h256V135.533h-256V408.6z"/>
	<path d="M348.867,314.733H127c-5.12,0-8.533-3.413-8.533-8.533s3.413-8.533,8.533-8.533h221.867c5.12,0,8.533,3.413,8.533,8.533
		S353.987,314.733,348.867,314.733z"/>
	<path d="M323.267,340.333c-2.56,0-4.267-0.853-5.973-2.56c-3.413-3.413-3.413-8.533,0-11.947L336.92,306.2l-19.627-19.627
		c-3.413-3.413-3.413-8.533,0-11.947c3.413-3.413,8.533-3.413,11.947,0l25.6,25.6c3.413,3.413,3.413,8.533,0,11.947l-25.6,25.6
		C327.533,339.48,325.827,340.333,323.267,340.333z"/>
	<path d="M152.6,340.333c-2.56,0-4.267-0.853-5.973-2.56l-25.6-25.6c-3.413-3.413-3.413-8.533,0-11.947l25.6-25.6
		c3.413-3.413,8.533-3.413,11.947,0s3.413,8.533,0,11.947L138.947,306.2l19.627,19.627c3.413,3.413,3.413,8.533,0,11.947
		C156.867,339.48,155.16,340.333,152.6,340.333z"/>
	<path d="M280.6,400.067c-5.12,0-8.533-3.413-8.533-8.533V152.6c0-5.12,3.413-8.533,8.533-8.533s8.533,3.413,8.533,8.533v238.933
		C289.133,396.653,285.72,400.067,280.6,400.067z"/>
	<path d="M280.6,400.067c-2.56,0-4.267-0.853-5.973-2.56l-25.6-25.6c-3.413-3.413-3.413-8.533,0-11.947
		c3.413-3.413,8.533-3.413,11.947,0l19.627,19.627l19.627-19.627c3.413-3.413,8.533-3.413,11.947,0
		c3.413,3.413,3.413,8.533,0,11.947l-25.6,25.6C284.867,399.213,283.16,400.067,280.6,400.067z"/>
	<path d="M306.2,186.733c-2.56,0-4.267-0.853-5.973-2.56L280.6,164.547l-19.627,19.627c-3.413,3.413-8.533,3.413-11.947,0
		s-3.413-8.533,0-11.947l25.6-25.6c3.413-3.413,8.533-3.413,11.947,0l25.6,25.6c3.413,3.413,3.413,8.533,0,11.947
		C310.467,185.88,308.76,186.733,306.2,186.733z"/>
</g>
</svg>