<svg xmlns="http://www.w3.org/2000/svg" width="3000" height="526" viewBox="0 0 3000 526" version="1.1"><path d="" stroke="none" fill="#780404" fill-rule="evenodd"/><path d="M 188.042 65.390 C 186.678 68.978, 161 145.145, 161 145.603 C 161 145.821, 178.697 146, 200.327 146 L 239.653 146 189.827 303.167 C 162.422 389.608, 140 460.708, 140 461.167 C 140 461.625, 157.079 462, 177.954 462 L 215.907 462 218.752 452.750 C 220.317 447.663, 241.600 376.566, 266.048 294.758 L 310.500 146.016 350.683 146.008 C 388.080 146.001, 390.902 145.879, 391.394 144.250 C 391.685 143.287, 396.681 125.400, 402.497 104.500 C 408.312 83.600, 413.310 65.713, 413.602 64.750 C 414.107 63.091, 408.309 63, 301.543 63 L 188.950 63 188.042 65.390 M 441.474 64.250 C 441.003 65.518, 377.712 298.196, 376.463 303.250 L 375.783 306 460.892 306 C 507.701 306, 546 306.262, 546 306.583 C 546 307.303, 511.113 458.819, 510.387 461.250 C 509.897 462.894, 512.018 463, 545.254 463 L 580.643 463 623.331 263.750 C 646.809 154.162, 666.014 64.162, 666.009 63.750 C 666.004 63.337, 651.677 63, 634.172 63 L 602.343 63 584.867 138.750 L 567.391 214.500 517.125 214.759 C 469.554 215.005, 466.887 214.924, 467.375 213.259 C 467.659 212.292, 476.256 178.650, 486.481 138.500 C 496.705 98.350, 505.266 64.938, 505.504 64.250 C 506.137 62.424, 442.151 62.424, 441.474 64.250 M 829.515 65.250 C 829.227 66.487, 813.924 155.025, 795.508 262 C 777.092 368.975, 761.758 457.738, 761.433 459.250 L 760.841 462 795.875 462 L 830.909 462 831.479 458.750 C 831.792 456.962, 836.314 428.050, 841.526 394.500 C 846.739 360.950, 851.263 332.262, 851.581 330.750 L 852.159 328 937.992 328 L 1023.824 328 1024.418 324.250 C 1025.400 318.053, 1054 67.623, 1054 65.221 L 1054 63 942.019 63 L 830.038 63 829.515 65.250 M 1081.966 64.250 C 1081.948 64.938, 1079.988 83.275, 1077.611 105 C 1075.234 126.725, 1073.476 144.838, 1073.704 145.250 C 1073.932 145.662, 1083.963 146, 1095.996 146 L 1117.873 146 1116.046 152.250 C 1113.541 160.818, 1107.720 180.623, 1104.511 191.500 C 1098.490 211.904, 1096.884 217.410, 1094.519 225.750 C 1093.155 230.563, 1091.509 236.075, 1090.861 238 C 1090.213 239.925, 1089.360 242.850, 1088.966 244.500 C 1088.572 246.150, 1086.572 253.125, 1084.523 260 C 1082.474 266.875, 1080.213 274.525, 1079.500 277 C 1078.787 279.475, 1076.526 287.125, 1074.477 294 C 1072.428 300.875, 1070.388 307.850, 1069.945 309.500 C 1069.501 311.150, 1068.433 314.863, 1067.569 317.750 C 1064.381 328.416, 1060.603 341.370, 1056.415 356 C 1055.549 359.025, 1054.459 362.625, 1053.994 364 C 1053.529 365.375, 1052.241 369.650, 1051.132 373.500 C 1047.252 386.963, 1038.875 415.581, 1036.056 425 C 1034.492 430.225, 1032.970 435.400, 1032.674 436.500 C 1032.377 437.600, 1031.408 440.975, 1030.520 444 C 1029.631 447.025, 1028.283 451.750, 1027.524 454.500 C 1026.764 457.250, 1025.835 460.293, 1025.460 461.263 C 1024.814 462.929, 1026.754 463.011, 1061.073 462.763 L 1097.370 462.500 1098.740 457.500 C 1099.493 454.750, 1100.777 450.025, 1101.592 447 C 1103.411 440.255, 1105.624 432.136, 1107.453 425.500 C 1108.212 422.750, 1110.782 413.413, 1113.166 404.752 L 1117.500 389.004 1162.250 389.002 C 1186.862 389.001, 1206.993 389.337, 1206.985 389.750 C 1206.977 390.163, 1205.859 406.025, 1204.500 425 C 1203.141 443.975, 1202.023 460.288, 1202.015 461.250 C 1202.001 462.884, 1204.323 463, 1236.894 463 L 1271.788 463 1272.424 454.250 C 1273.381 441.073, 1293 72.034, 1293 67.195 L 1293 63 1187.500 63 C 1103.785 63, 1081.993 63.258, 1081.966 64.250 M 1327.594 68.250 C 1327.149 72.497, 1309.920 457.450, 1309.982 461.750 C 1309.996 462.743, 1334.976 463, 1431.500 463 L 1553 463 1552.946 436.750 C 1552.901 414.841, 1550.312 206.028, 1550.076 205.250 C 1550.034 205.113, 1513.313 205, 1468.474 205 L 1386.947 205 1387.505 185.750 C 1387.812 175.162, 1388.317 161.888, 1388.628 156.250 L 1389.192 146 1469.257 146 L 1549.321 146 1548.661 118.838 C 1548.297 103.898, 1548 85.223, 1548 77.338 L 1548 63 1438.072 63 L 1328.144 63 1327.594 68.250 M 1581.980 70.250 C 1581.942 84.377, 1589.024 435.707, 1589.610 448.750 L 1590.205 462 1721.602 462 C 1850.329 462, 1853 461.961, 1853 460.088 C 1853 459.036, 1845.800 370.008, 1837 262.249 C 1828.200 154.490, 1821 65.576, 1821 64.662 C 1821 63.122, 1812.226 63, 1701.500 63 L 1582 63 1581.980 70.250 M 1845.998 65.750 C 1845.996 68.933, 1851.744 135.408, 1852.569 141.750 L 1853.123 146 1892.561 146 C 1922.879 146, 1932 146.281, 1932 147.217 C 1932 149.192, 1964.951 455.192, 1965.546 458.750 L 1966.091 462 2004.045 462 C 2037.551 462, 2042 461.820, 2042 460.460 C 2042 459.613, 2033.225 389.149, 2022.500 303.872 C 2011.775 218.596, 2003 148.188, 2003 147.412 C 2003 146.220, 2009.227 146, 2043.045 146 L 2083.091 146 2082.529 142.750 C 2081.912 139.176, 2071 64.094, 2071 63.420 C 2071 63.189, 2020.375 63, 1958.500 63 L 1846 63 1845.998 65.750 M 2104.548 65.750 C 2104.822 67.263, 2107.499 84.475, 2110.498 104 C 2113.497 123.525, 2116.207 140.963, 2116.521 142.750 L 2117.091 146 2139.526 146 L 2161.960 146 2161.529 152.750 C 2161.291 156.463, 2160.843 169.625, 2160.533 182 C 2160.223 194.375, 2159.761 209.450, 2159.506 215.500 C 2159.252 221.550, 2158.797 236.175, 2158.495 248 C 2158.194 259.825, 2157.741 274.450, 2157.488 280.500 C 2157.236 286.550, 2156.786 300.050, 2156.489 310.500 C 2156.192 320.950, 2155.750 335.800, 2155.508 343.500 C 2155.265 351.200, 2154.817 366.275, 2154.512 377 C 2154.207 387.725, 2153.751 401.450, 2153.499 407.500 C 2153.247 413.550, 2152.758 428.512, 2152.412 440.750 L 2151.784 463 2187.892 463 L 2224 463 2224.081 452.250 C 2224.126 446.337, 2224.314 436.775, 2224.500 431 C 2224.686 425.225, 2224.874 413.413, 2224.919 404.750 L 2225 389 2269.755 389 L 2314.510 389 2321.533 425.750 L 2328.557 462.500 2363.890 462.763 C 2392.013 462.972, 2399.130 462.768, 2398.766 461.763 C 2398.514 461.068, 2379.676 371.063, 2356.904 261.752 L 2315.500 63.004 2209.775 63.002 L 2104.050 63 2104.548 65.750 M 2350.532 66.250 C 2350.875 68.037, 2370.370 157.925, 2393.854 266 L 2436.553 462.500 2558.277 462.754 C 2625.225 462.894, 2680 462.784, 2680 462.510 C 2680 462.058, 2655.643 372.866, 2654.396 368.750 C 2653.896 367.101, 2648.952 367, 2568.933 367 C 2522.220 367, 2484 366.836, 2484 366.637 C 2484 366.012, 2467.991 297.596, 2467.413 295.750 C 2466.895 294.096, 2470.422 294, 2531.933 294 C 2567.720 294, 2596.977 293.887, 2596.950 293.750 C 2596.922 293.613, 2591.625 273.700, 2585.178 249.500 L 2573.457 205.500 2509.896 205.243 L 2446.335 204.985 2439.647 176.243 C 2435.968 160.434, 2432.968 147.162, 2432.979 146.750 C 2432.991 146.338, 2469 146, 2513 146 C 2557 146, 2593 145.674, 2593 145.276 C 2593 144.878, 2587.973 126.203, 2581.829 103.776 L 2570.659 63 2460.284 63 L 2349.909 63 2350.532 66.250 M 2590.922 69.250 C 2591.902 72.688, 2597.120 91.357, 2602.519 110.739 L 2612.334 145.977 2651.844 146.239 L 2691.353 146.500 2738.427 304.249 L 2785.500 461.997 2823.817 461.999 L 2862.135 462 2861.406 459.750 C 2861.005 458.512, 2838.535 387.525, 2811.473 302 L 2762.270 146.500 2802.135 146.239 C 2824.061 146.095, 2842.007 145.645, 2842.015 145.239 C 2842.023 144.832, 2835.835 126.167, 2828.265 103.760 L 2814.500 63.020 2701.821 63.010 L 2589.141 63 2590.922 69.250 M 880 147.037 C 880 148.341, 867.203 230.519, 866.419 234.250 L 865.841 237 916.921 237 C 964.890 237, 968.002 236.893, 968.029 235.250 C 968.044 234.287, 970.653 213.813, 973.825 189.750 L 979.593 146 929.797 146 C 896.092 146, 880 146.335, 880 147.037 M 1182.945 153.250 C 1180.024 163.275, 1177.535 172.088, 1174.967 181.500 C 1173.767 185.900, 1171.934 192.537, 1170.893 196.250 C 1169.852 199.963, 1168.148 206.037, 1167.107 209.750 C 1166.066 213.463, 1164.233 220.100, 1163.033 224.500 C 1161.832 228.900, 1160.028 235.425, 1159.024 239 C 1158.019 242.575, 1155.519 251.575, 1153.466 259 C 1151.414 266.425, 1148.280 277.563, 1146.503 283.750 L 1143.270 295 1178.635 295 L 1214 295 1214.001 291.750 C 1214.002 289.962, 1216.250 256.550, 1218.996 217.500 C 1221.743 178.450, 1223.992 146.387, 1223.995 146.250 C 1223.998 146.113, 1215.238 146, 1204.529 146 L 1185.058 146 1182.945 153.250 M 1648.474 158.250 C 1649.112 170.720, 1655.995 358.229, 1655.998 363.250 L 1656 366 1716 366 L 1776 366 1776.001 362.250 C 1776.002 357.748, 1763.316 161.191, 1762.448 152.250 L 1761.841 146 1704.844 146 L 1647.847 146 1648.474 158.250 M 2228.901 147.250 C 2228.487 152.454, 2228.145 169.775, 2227.512 217.500 C 2227.111 247.750, 2226.663 277.563, 2226.516 283.750 L 2226.250 295 2261.125 295 C 2286.145 295, 2296 294.684, 2296 293.883 C 2296 293.269, 2289.700 260.021, 2282 220 C 2274.300 179.979, 2268 146.956, 2268 146.617 C 2268 146.278, 2259.225 146, 2248.500 146 C 2233.620 146, 2228.976 146.296, 2228.901 147.250 M 1383.991 308.750 C 1383.883 316.863, 1383.503 333.288, 1383.147 345.251 L 1382.500 367.003 1432.750 367.001 L 1483 367 1483.003 347.750 C 1483.005 337.163, 1483.301 320.738, 1483.660 311.250 L 1484.315 294 1434.251 294 L 1384.188 294 1383.991 308.750" stroke="none" fill="#740404" fill-rule="evenodd"/></svg>