<svg xmlns="http://www.w3.org/2000/svg" width="6815" height="2192" viewBox="0 0 6815 2192" version="1.1"><path d="M 1014 278 L 1014 358 940 358 L 866 358 866 1188.500 L 866 2019 781.500 2019 L 697 2019 697 2031.500 L 697 2044 789.500 2044 L 882 2044 882 1213.500 L 882 383 956 383 L 1030 383 1030 290.500 L 1030 198 1022 198 L 1014 198 1014 278 M 1277.307 509.750 C 1277.580 739.599, 1277.985 824.127, 1278.849 831.500 C 1281.641 855.326, 1284.831 866.460, 1290.553 872.351 C 1293.968 875.868, 1298.881 879.235, 1297.620 877.195 C 1293.674 870.810, 1293.614 865.932, 1293.280 524.750 L 1292.959 198 1284.948 198 L 1276.937 198 1277.307 509.750 M 1573 1108.500 L 1573 2019 1488 2019 L 1403 2019 1403 2031.500 L 1403 2044 1495.500 2044 L 1588 2044 1588 1121 L 1588 198 1580.500 198 L 1573 198 1573 1108.500 M 2964 198.658 C 2964 199.020, 2985.600 607.985, 3012 1107.469 C 3038.400 1606.952, 3060 2016.381, 3060 2017.310 C 3060 2018.883, 3054.188 2019, 2976 2019 L 2892 2019 2892 2022.346 C 2892 2024.187, 2892.292 2029.812, 2892.650 2034.846 L 2893.299 2044 2984.634 2044 L 3075.969 2044 3075.459 2038.250 C 3075.178 2035.088, 3053.361 1622.550, 3026.976 1121.500 C 3000.592 620.450, 2978.743 207.688, 2978.423 204.250 L 2977.841 198 2970.920 198 C 2967.114 198, 2964 198.296, 2964 198.658 M 3620 278 L 3620 358 3472 358 L 3324 358 3324 621.500 L 3324 885 3332 885 L 3340 885 3340 634 L 3340 383 3487.500 383 L 3635 383 3635 290.500 L 3635 198 3627.500 198 L 3620 198 3620 278 M 4764 278 L 4764 358 4690 358 L 4616 358 4616 1188.500 L 4616 2019 4531.500 2019 L 4447 2019 4447 2031.500 L 4447 2044 4539.500 2044 L 4632 2044 4632 1213.500 L 4632 383 4706 383 L 4780 383 4780 290.500 L 4780 198 4772 198 L 4764 198 4764 278 M 5148 198.658 C 5148 199.020, 5169.600 607.985, 5196 1107.469 C 5222.400 1606.952, 5244 2016.381, 5244 2017.310 C 5244 2018.883, 5238.188 2019, 5160 2019 L 5076 2019 5076 2022.346 C 5076 2024.187, 5076.292 2029.812, 5076.650 2034.846 L 5077.299 2044 5168.634 2044 L 5259.969 2044 5259.459 2038.250 C 5259.178 2035.088, 5237.361 1622.550, 5210.976 1121.500 C 5184.592 620.450, 5162.743 207.688, 5162.423 204.250 L 5161.841 198 5154.920 198 C 5151.114 198, 5148 198.296, 5148 198.658 M 5746 278 L 5746 358 5627 358 L 5508 358 5508 621.500 L 5508 885 5516 885 L 5524 885 5524 634 L 5524 383 5642.500 383 L 5761 383 5761 290.500 L 5761 198 5753.500 198 L 5746 198 5746 278 M 6278 278 L 6278 358 6204 358 L 6130 358 6130 1188.500 L 6130 2019 6045.500 2019 L 5961 2019 5961 2031.500 L 5961 2044 6053.500 2044 L 6146 2044 6146 1213.500 L 6146 383 6220 383 L 6294 383 6294 290.500 L 6294 198 6286 198 L 6278 198 6278 278 M 4173.615 251.500 C 4181.388 270.023, 4183.716 276.398, 4187.507 289.541 C 4197.392 323.818, 4202.215 358.852, 4204.020 409.500 C 4204.562 424.704, 4204.947 709.752, 4204.947 1096 C 4204.947 1808.979, 4205.021 1798.978, 4199.415 1844 C 4183.044 1975.459, 4120.938 2035.483, 3992.500 2043.977 C 3897.570 2050.255, 3821.196 2026.642, 3781.446 1978.723 C 3772.370 1967.782, 3772.462 1967.866, 3774.958 1972.844 C 3807.175 2037.091, 3876.603 2070.003, 3979.911 2069.999 C 4129.899 2069.994, 4199.330 2008.340, 4215.921 1860.425 C 4220.023 1823.860, 4220 1827.965, 4220 1121 C 4220 660.943, 4219.660 429.343, 4218.966 417.361 C 4215.035 349.466, 4202.025 296.302, 4180.600 260.586 C 4173.587 248.895, 4171.241 245.843, 4173.615 251.500 M 2525.517 293.913 C 2542.300 332.758, 2550.704 376.645, 2553.012 437.500 C 2554.256 470.299, 2554.258 1009.635, 2553.014 1042.500 C 2545.938 1229.437, 2466.527 1306.864, 2281.750 1306.985 L 2258 1307 2258 1663 L 2258 2019 2173 2019 L 2088 2019 2088 2031.500 L 2088 2044 2181 2044 L 2274 2044 2274 1688.116 L 2274 1332.232 2310.750 1331.713 C 2479.929 1329.324, 2556.856 1255.095, 2567.965 1083.517 C 2569.385 1061.590, 2569.380 468.729, 2567.960 446 C 2564.017 382.897, 2551.306 333.273, 2529.796 297 C 2521.498 283.008, 2520.493 282.282, 2525.517 293.913 M 3947.691 333.043 C 3918.700 337.914, 3912.630 349.648, 3909.956 406 C 3908.360 439.618, 3909.207 1792.835, 3910.832 1806.500 C 3913.682 1830.466, 3916.838 1841.468, 3922.553 1847.351 C 3929.135 1854.128, 3929.791 1853.940, 3928.378 1845.680 C 3927.703 1841.731, 3926.667 1831.602, 3926.075 1823.170 C 3924.617 1802.379, 3924.576 439.853, 3926.033 419 C 3928.463 384.221, 3932.706 371.681, 3944.313 364.970 C 3958.602 356.708, 3988.257 355.008, 4007.190 361.367 C 4016.041 364.339, 4015.692 364.637, 4013.154 356.280 C 4007.363 337.215, 3980.216 327.579, 3947.691 333.043 M 549 370.500 L 549 383 615.500 383 L 682 383 682 370.500 L 682 358 615.500 358 L 549 358 549 370.500 M 2258 739.907 L 2258 1122 2266 1122 L 2274 1122 2274 752.353 L 2274 382.705 2299.750 383.310 C 2333.173 384.095, 2345.921 386.973, 2358.511 396.576 L 2362.116 399.325 2360.156 394.168 C 2349.913 367.210, 2332.860 358.977, 2285.750 358.244 L 2258 357.813 2258 739.907 M 2817.606 360.250 C 2817.215 362.286, 2780.847 1455.767, 2780.954 1462.250 L 2781 1465 2788.896 1465 L 2796.792 1465 2797.441 1450.750 C 2799.186 1412.462, 2827.999 534.934, 2827.991 520.335 C 2827.984 507.552, 2825.750 434.863, 2823.009 358.250 C 2822.950 356.602, 2817.951 358.452, 2817.606 360.250 M 4299 370.500 L 4299 383 4365.500 383 L 4432 383 4432 370.500 L 4432 358 4365.500 358 L 4299 358 4299 370.500 M 5001.606 360.250 C 5001.215 362.286, 4964.847 1455.767, 4964.954 1462.250 L 4965 1465 4972.896 1465 L 4980.792 1465 4981.441 1450.750 C 4983.186 1412.462, 5011.999 534.934, 5011.991 520.335 C 5011.984 507.552, 5009.750 434.863, 5007.009 358.250 C 5006.950 356.602, 5001.951 358.452, 5001.606 360.250 M 5813 370.500 L 5813 383 5879.500 383 L 5946 383 5946 370.500 L 5946 358 5879.500 358 L 5813 358 5813 370.500 M 5719 990 L 5719 1070 5613.500 1070 L 5508 1070 5508 1452 L 5508 1834 5516 1834 L 5524 1834 5524 1464.500 L 5524 1095 5629.500 1095 L 5735 1095 5735 1002.500 L 5735 910 5727 910 L 5719 910 5719 990 M 1144.067 996.500 C 1182.052 1065.832, 1244.706 1094.985, 1355.750 1094.997 L 1388 1095 1388 1080.921 L 1388 1066.841 1385.250 1067.431 C 1372.847 1070.089, 1333.717 1070.861, 1306 1068.993 C 1233.900 1064.135, 1181.560 1041.082, 1148.220 999.500 C 1140.450 989.809, 1140.369 989.750, 1144.067 996.500 M 3588.356 1000 C 3588.642 1000.825, 3590.644 1005.550, 3592.806 1010.500 C 3608.323 1046.036, 3616.799 1090.990, 3619.014 1149.500 C 3620.258 1182.365, 3620.256 1721.701, 3619.012 1754.500 C 3613.652 1895.791, 3569.878 1970.192, 3473.178 2002.371 C 3427.125 2017.695, 3410.695 2019, 3263.767 2019 L 3154 2019 3154 2031.538 L 3154 2044.077 3284.750 2043.719 C 3401.401 2043.400, 3416.794 2043.178, 3427.500 2041.655 C 3563.904 2022.257, 3624.314 1950.379, 3633.960 1796 C 3635.380 1773.271, 3635.385 1180.410, 3633.965 1158.483 C 3629.900 1095.706, 3617.492 1047.050, 3596.481 1011.500 C 3591.175 1002.522, 3587.359 997.121, 3588.356 1000 M 3324 1451.894 L 3324 1834 3332 1834 L 3340 1834 3340 1464.500 L 3340 1095 3356.250 1095.009 C 3391.846 1095.027, 3409.606 1098.709, 3422.847 1108.816 C 3428.194 1112.899, 3428.367 1112.754, 3425.664 1106.466 C 3414.085 1079.531, 3396.520 1071.039, 3350.750 1070.249 L 3324 1069.787 3324 1451.894 M 2775.014 1627.750 C 2775.040 1636.133, 2763.028 2000.149, 2762.409 2009.750 L 2761.813 2019 2678.907 2019 L 2596 2019 2595.994 2023.250 C 2595.991 2025.588, 2595.699 2031.213, 2595.346 2035.750 L 2594.704 2044 2686.352 2044 L 2778 2044 2777.999 2039.750 C 2777.998 2033.087, 2789.851 1676.082, 2790.566 1661.250 L 2791.205 1648 2828.602 1648 L 2866 1648 2865.991 1640.750 C 2865.987 1636.763, 2865.699 1631.138, 2865.352 1628.250 L 2864.721 1623 2819.861 1623 L 2775 1623 2775.014 1627.750 M 4959.014 1627.750 C 4959.040 1636.133, 4947.028 2000.149, 4946.409 2009.750 L 4945.813 2019 4862.907 2019 L 4780 2019 4779.994 2023.250 C 4779.991 2025.588, 4779.699 2031.213, 4779.346 2035.750 L 4778.704 2044 4870.352 2044 L 4962 2044 4961.999 2039.750 C 4961.998 2033.087, 4973.851 1676.082, 4974.566 1661.250 L 4975.205 1648 5012.602 1648 L 5050 1648 5049.991 1640.750 C 5049.987 1636.763, 5049.699 1631.138, 5049.352 1628.250 L 5048.721 1623 5003.861 1623 L 4959 1623 4959.014 1627.750 M 5746 1939 L 5746 2019 5542 2019 L 5338 2019 5338 2031.500 L 5338 2044 5549.500 2044 L 5761 2044 5761 1951.500 L 5761 1859 5753.500 1859 L 5746 1859 5746 1939" stroke="none" fill="#f9f9f9" fill-rule="evenodd"/><path d="M 3931.500 147.681 C 3796.945 159.293, 3741.082 221.444, 3726.280 376 C 3724.200 397.722, 3722.952 1736.182, 3724.967 1784.500 C 3732.706 1970.058, 3801.663 2045.045, 3964.500 2044.975 C 4129.669 2044.904, 4197.308 1970.783, 4204.020 1782.500 C 4205.254 1747.908, 4205.254 444.092, 4204.020 409.500 C 4201.508 339.024, 4193.412 297.545, 4172.790 249.500 C 4141.698 177.063, 4048.203 137.610, 3931.500 147.681 M 534 265.500 L 534 358 608 358 L 682 358 682 1188.500 L 682 2019 774 2019 L 866 2019 866 1188.500 L 866 358 940 358 L 1014 358 1014.003 284.250 C 1014.004 243.688, 1014.301 202.063, 1014.661 191.750 L 1015.316 173 774.658 173 L 534 173 534 265.500 M 1092.006 482.250 C 1092.011 791.303, 1092.258 816.911, 1095.543 849 C 1110.252 992.681, 1174.799 1060.153, 1306 1068.993 C 1333.717 1070.861, 1372.847 1070.089, 1385.250 1067.431 L 1388 1066.841 1388 1542.921 L 1388 2019 1480.500 2019 L 1573 2019 1573 1096 L 1573 173 1480.500 173 L 1388 173 1388 529.120 L 1388 885.240 1353.250 884.715 C 1289.212 883.747, 1283.921 879.822, 1278.818 829.497 C 1277.757 819.035, 1277.500 753.745, 1277.500 494.750 L 1277.500 173 1184.750 173 L 1092 173 1092.006 482.250 M 2073 1095.962 L 2073 2019 2165.500 2019 L 2258 2019 2258 1663 L 2258 1307 2281.750 1306.985 C 2466.527 1306.864, 2545.938 1229.437, 2553.014 1042.500 C 2554.258 1009.635, 2554.256 470.299, 2553.012 437.500 C 2546.713 271.450, 2487.857 195.930, 2349 175.724 C 2334.938 173.677, 2330.553 173.603, 2203.750 173.268 L 2073 172.923 2073 1095.962 M 2674.567 180.250 C 2674.235 184.238, 2653.054 595.200, 2627.497 1093.500 C 2601.941 1591.800, 2580.741 2003.888, 2580.387 2009.250 L 2579.742 2019 2670.778 2019 L 2761.813 2019 2762.409 2009.750 C 2763.028 2000.149, 2775.040 1636.133, 2775.014 1627.750 L 2775 1623 2819.861 1623 L 2864.721 1623 2865.352 1628.250 C 2865.699 1631.138, 2865.984 1639.800, 2865.985 1647.500 C 2865.987 1661.418, 2876.371 1983.348, 2877.572 2006.750 L 2878.201 2019 2969.101 2019 C 3053.766 2019, 3060 2018.884, 3060 2017.310 C 3060 2016.381, 3038.400 1606.952, 3012 1107.469 C 2985.600 607.985, 2964 195.483, 2964 190.798 C 2964 186.113, 2963.714 180.191, 2963.364 177.640 L 2962.728 173 2818.949 173 L 2675.171 173 2674.567 180.250 M 3139 1096 L 3139 2019 3256.267 2019 C 3411.614 2019, 3426.674 2017.845, 3473.178 2002.371 C 3569.878 1970.192, 3613.652 1895.791, 3619.012 1754.500 C 3620.256 1721.701, 3620.258 1182.365, 3619.014 1149.500 C 3616.824 1091.638, 3608.405 1046.540, 3593.253 1011.500 C 3591.350 1007.100, 3588.960 1001.410, 3587.941 998.855 C 3570.619 955.430, 3520.143 915.266, 3461.113 897.938 C 3429.624 888.694, 3407.821 885.932, 3361.250 885.287 L 3324 884.770 3324 621.385 L 3324 358 3472 358 L 3620 358 3620 265.500 L 3620 173 3379.500 173 L 3139 173 3139 1096 M 4284 265.500 L 4284 358 4358 358 L 4432 358 4432 1188.500 L 4432 2019 4524 2019 L 4616 2019 4616 1188.500 L 4616 358 4690 358 L 4764 358 4764.003 284.250 C 4764.004 243.688, 4764.301 202.063, 4764.661 191.750 L 4765.316 173 4524.658 173 L 4284 173 4284 265.500 M 4858.567 180.250 C 4858.235 184.238, 4837.054 595.200, 4811.497 1093.500 C 4785.941 1591.800, 4764.741 2003.888, 4764.387 2009.250 L 4763.742 2019 4854.778 2019 L 4945.813 2019 4946.409 2009.750 C 4947.028 2000.149, 4959.040 1636.133, 4959.014 1627.750 L 4959 1623 5003.861 1623 L 5048.721 1623 5049.352 1628.250 C 5049.699 1631.138, 5049.984 1639.800, 5049.985 1647.500 C 5049.987 1661.418, 5060.371 1983.348, 5061.572 2006.750 L 5062.201 2019 5153.101 2019 C 5237.766 2019, 5244 2018.884, 5244 2017.310 C 5244 2016.381, 5222.400 1606.952, 5196 1107.469 C 5169.600 607.985, 5148 195.483, 5148 190.798 C 5148 186.113, 5147.714 180.191, 5147.364 177.640 L 5146.728 173 5002.949 173 L 4859.171 173 4858.567 180.250 M 5323 1096 L 5323 2019 5534.500 2019 L 5746 2019 5746 1926.500 L 5746 1834 5627 1834 L 5508 1834 5508 1452 L 5508 1070 5613.500 1070 L 5719 1070 5719.003 996.250 C 5719.004 955.688, 5719.301 914.063, 5719.661 903.750 L 5720.316 885 5614.158 885 L 5508 885 5508 621.500 L 5508 358 5627 358 L 5746 358 5746 265.500 L 5746 173 5534.500 173 L 5323 173 5323 1096 M 5798 265.500 L 5798 358 5872 358 L 5946 358 5946 1188.500 L 5946 2019 6038 2019 L 6130 2019 6130 1188.500 L 6130 358 6204 358 L 6278 358 6278.003 284.250 C 6278.004 243.688, 6278.301 202.063, 6278.661 191.750 L 6279.316 173 6038.658 173 L 5798 173 5798 265.500 M 3947.691 333.043 C 3918.700 337.914, 3912.630 349.648, 3909.956 406 C 3908.360 439.618, 3909.207 1792.835, 3910.832 1806.500 C 3916.086 1850.682, 3925.029 1859.298, 3965.500 1859.171 C 4004.892 1859.047, 4013.781 1849.486, 4018.187 1802.500 C 4020.121 1781.877, 4020.131 408.803, 4018.198 389.500 C 4014.506 352.651, 4011.348 344.743, 3997.627 337.988 C 3987.008 332.760, 3963.330 330.416, 3947.691 333.043 M 2258 739.907 L 2258 1122 2274.750 1121.991 C 2339.619 1121.958, 2358.527 1108.089, 2366.717 1054.532 C 2368.790 1040.971, 2370.030 479.762, 2368.064 444.500 C 2364.179 374.828, 2349.296 359.232, 2285.750 358.244 L 2258 357.813 2258 739.907 M 2817.606 360.250 C 2817.215 362.286, 2780.847 1455.767, 2780.954 1462.250 L 2781 1465 2820 1465 L 2859 1465 2859 1458.385 C 2859 1454.747, 2852.072 1242.459, 2843.605 986.635 C 2835.138 730.811, 2827.241 489.325, 2826.058 450 C 2823.239 356.349, 2821.632 339.284, 2817.606 360.250 M 5001.606 360.250 C 5001.215 362.286, 4964.847 1455.767, 4964.954 1462.250 L 4965 1465 5004 1465 L 5043 1465 5043 1458.385 C 5043 1454.747, 5036.072 1242.459, 5027.605 986.635 C 5019.138 730.811, 5011.241 489.325, 5010.058 450 C 5007.239 356.349, 5005.632 339.284, 5001.606 360.250 M 3324 1452.040 L 3324 1834.292 3350.250 1833.691 C 3407.301 1832.385, 3423.453 1820.635, 3431.590 1774.518 C 3434.888 1755.824, 3435.126 1730.677, 3434.764 1438.500 C 3434.377 1126.137, 3434.643 1142.184, 3429.503 1120.500 C 3428.591 1116.650, 3427.637 1112.444, 3427.385 1111.153 C 3422.136 1084.326, 3397.267 1071.052, 3350.750 1070.249 L 3324 1069.787 3324 1452.040" stroke="none" fill="#040404" fill-rule="evenodd"/></svg>